<svg width="34" height="35" viewBox="0 0 34 35" fill="none" xmlns="http://www.w3.org/2000/svg">
<path d="M2.07804 6.286C0.555752 4.61695 0.073777 3.46667 0 3.31619C1.63505 0.123657 7.00895 -1.33741 12.2802 1.55749C16.1938 3.83635 18.3964 7.8472 15.4397 11.2704L15.1498 11.6069L14.7062 11.6157C9.28774 11.705 5.71994 10.3292 2.07804 6.286Z" fill="#57D9AD"/>
<path d="M19.2935 11.6157L18.8499 11.6069L18.56 11.2704C15.6161 7.86202 17.7863 3.84 21.6981 1.56095C25.9151 -0.757148 31.5054 -0.743734 33.9997 3.31619C33.4447 4.20955 33.0769 5.01938 31.9177 6.29085C28.229 10.3855 24.6313 11.7027 19.2935 11.6157Z" fill="#26BFA6"/>
<path d="M25.8514 4.08771C22.6958 5.3659 20.0733 7.49912 18.4722 10.0837C17.873 11.0224 17.3827 12.0467 16.9994 13.1537C16.6181 12.0496 16.1298 11.0282 15.5325 10.0953C13.9256 7.49905 11.3031 5.36583 8.14746 4.08765L7.40039 5.93393C10.1649 7.05453 12.4528 8.90467 13.8458 11.1556C15.2251 13.3152 15.9508 16.0427 16.0034 19.2606V22.9793H17.9955V19.2606C18.0481 16.0427 18.7737 13.3152 20.1589 11.1439C21.5461 8.90467 23.8339 7.05453 26.5985 5.93393L25.8514 4.08771Z" fill="#26BFA6"/>
<path d="M17.9961 22.9793V19.2606C18.0486 16.0427 18.7743 13.3152 20.1595 11.1439C21.5466 8.90467 23.8345 7.05453 26.599 5.93393L25.852 4.08765C22.6964 5.36583 20.0739 7.49905 18.4728 10.0836C17.8736 11.0224 17.3833 12.0467 17 13.1536V22.9792H17.9961V22.9793Z" fill="#0F9983"/>
<path d="M33.9999 34.0026H0V32.9401C0 28.1331 4.85129 24.768 9.3133 26.3683C10.9164 23.6757 13.8385 21.9832 16.9999 21.9832C20.1613 21.9832 23.0834 23.6757 24.6866 26.3683C29.1396 24.7713 33.9999 28.1246 33.9999 32.9401V34.0026Z" fill="#5C6366"/>
<path d="M33.9999 34.0026V32.9401C33.9999 28.1246 29.1396 24.7713 24.6866 26.3683C23.0835 23.6757 20.1614 21.9832 17 21.9832V34.0026H33.9999Z" fill="#41474D"/>
</svg>
